<svg 
 xmlns="http://www.w3.org/2000/svg"
 xmlns:xlink="http://www.w3.org/1999/xlink"
 width="13px" height="13px">
<path fill-rule="evenodd"  fill="rgb(128, 128, 128)"
 d="M812.622,13.000 L808.775,9.160 C807.983,9.690 807.026,10.000 806.001,10.000 C803.240,10.000 801.000,7.762 801.000,5.000 C801.000,2.239 803.240,-0.000 806.001,-0.000 C808.760,-0.000 811.001,2.239 811.001,5.000 C811.001,6.026 810.691,6.981 810.159,7.775 L814.000,11.623 L812.622,13.000 ZM806.001,2.000 C804.343,2.000 803.000,3.343 803.000,5.000 C803.000,6.657 804.343,8.000 806.001,8.000 C807.657,8.000 809.001,6.657 809.001,5.000 C809.001,3.343 807.657,2.000 806.001,2.000 Z"/>
</svg>
