<svg 
 xmlns="http://www.w3.org/2000/svg"
 xmlns:xlink="http://www.w3.org/1999/xlink"
 width="20px" height="19px">
<path fill-rule="evenodd"  fill="rgb(128, 128, 128)"
 d="M10.101,15.550 L10.001,15.650 L9.900,15.550 C5.141,11.240 2.001,8.390 2.001,5.500 C2.001,3.500 3.500,2.000 5.499,2.000 C7.041,2.000 8.539,2.990 9.071,4.360 L10.942,4.360 C11.459,2.990 12.961,2.000 14.500,2.000 C16.500,2.000 18.000,3.500 18.000,5.500 C18.000,8.390 14.860,11.240 10.101,15.550 ZM14.500,-0.000 C12.760,-0.000 11.090,0.810 10.001,2.090 C8.912,0.810 7.240,-0.000 5.499,-0.000 C2.420,-0.000 0.002,2.420 0.002,5.500 C0.002,9.280 3.402,12.360 8.550,17.040 L10.001,18.350 L11.450,17.030 C16.599,12.360 20.001,9.280 20.001,5.500 C20.001,2.420 17.580,-0.000 14.500,-0.000 Z"/>
</svg>
